<svg xmlns="http://www.w3.org/2000/svg" version="1.1" xmlns:xlink="http://www.w3.org/1999/xlink" xmlns:svgjs="http://svgjs.dev/svgjs" width="128" height="128" viewBox="0 0 128 128"><g transform="matrix(0.6358024691358025,0,0,0.6358024691358025,23.447070333141056,12.33387096774193)"><svg viewBox="0 0 122 155" data-background-color="#ffffff" preserveAspectRatio="xMidYMid meet" height="162" width="128" xmlns="http://www.w3.org/2000/svg" xmlns:xlink="http://www.w3.org/1999/xlink"><g id="tight-bounds" transform="matrix(1,0,0,1,-0.20751654006370757,0.25)"><svg viewBox="0 0 122.41503308012742 154.5" height="154.5" width="122.41503308012742"><g><svg viewBox="0 0 122.41503308012742 154.5" height="154.5" width="122.41503308012742"><g><svg viewBox="0 0 122.41503308012742 154.5" height="154.5" width="122.41503308012742"><g id="textblocktransform"><svg viewBox="0 0 122.41503308012742 154.5" height="154.5" width="122.41503308012742" id="textblock"><g><svg viewBox="0 0 122.41503308012742 154.5" height="154.5" width="122.41503308012742"><g transform="matrix(1,0,0,1,0,0)"><svg width="122.41503308012742" viewBox="4.4 -37.1 29.39285713853201 37.1" height="154.5" data-palette-color="#883d1a"><g class="undefined-text-0" data-fill-palette-color="primary" id="text-0"><path d="M33.65-0.85L33.65-0.85Q33.85-0.5 33.77-0.25 33.7 0 33.3 0L33.3 0 28.1 0Q27.35 0 27.05-0.55L27.05-0.55 16.95-18.15Q16.65-18.65 16.15-18.05L16.15-18.05 10.8-11.9Q10.45-11.5 10.45-10.95L10.45-10.95 10.45-0.85Q10.45 0 9.5 0L9.5 0 5.25 0Q4.8 0 4.6-0.18 4.4-0.35 4.4-0.8L4.4-0.8 4.4-36.4Q4.4-37.1 5.05-37.1L5.05-37.1 9.85-37.1Q10.45-37.1 10.45-36.45L10.45-36.45 10.45-19.15Q10.45-18.8 10.6-18.78 10.75-18.75 10.95-19L10.95-19 26-36.55Q26.25-36.85 26.5-36.98 26.75-37.1 27.25-37.1L27.25-37.1 31.5-37.1Q31.95-37.1 32.13-36.85 32.3-36.6 32-36.25L32-36.25 21-23.8Q20.7-23.45 20.95-22.95L20.95-22.95 33.65-0.85Z" fill="#883d1a" data-fill-palette-color="primary"></path></g></svg></g></svg></g></svg></g></svg></g></svg></g><defs></defs></svg><rect width="122.41503308012742" height="154.5" fill="none" stroke="none" visibility="hidden"></rect></g></svg></g></svg>